<svg width="75" height="64" viewBox="0 0 75 64" fill="none" xmlns="http://www.w3.org/2000/svg">
<path d="M28.068 24.922V18.7225H35.0808C35.0808 18.7225 21.0569 4.91984 16.3822 0.318775C16.0809 0.0220319 15.7862 -0.218079 16.216 0.319109C17.9764 2.51887 20.8176 7.05084 20.8176 13.3894V29.8961C20.8176 30.8821 21.6293 31.6812 22.6309 31.6812H42.7156C43.5673 31.6812 45.5088 31.6203 47.5874 31.0308L41.3789 24.922H28.068ZM58.7841 31.6809C57.8971 30.5727 56.7367 28.8726 55.8024 26.6475C56.0986 25.7118 56.2669 24.6431 56.2669 23.4211C56.2669 23.4211 56.5056 18.8188 51.8782 16.7062C54.1681 15.5324 55.7898 13.4197 55.7898 9.89755C55.7898 0.0846479 44.2455 0.319109 44.2455 0.319109H26.7541L33.481 6.94008H44.2455C44.2455 6.94008 48.4431 6.8928 48.4431 10.2745C48.4431 13.3257 44.2455 13.3257 44.2455 13.3257H39.9686C39.9686 13.3257 53.9434 27.0801 58.6177 31.6812C58.9192 31.9777 59.2137 32.2183 58.7841 31.6809Z" fill="#2B2A29"/>
<path d="M28.068 24.922V18.7225H35.0808C35.0808 18.7225 21.0569 4.91984 16.3822 0.318775C16.0809 0.0220319 15.7862 -0.218079 16.216 0.319109C17.9764 2.51887 20.8176 7.05084 20.8176 13.3894V29.8961C20.8176 30.8821 21.6293 31.6812 22.6309 31.6812H42.7156C43.5673 31.6812 45.5088 31.6203 47.5874 31.0308L41.3789 24.922H28.068ZM58.7841 31.6809C57.8971 30.5727 56.7367 28.8726 55.8024 26.6475C56.0986 25.7118 56.2669 24.6431 56.2669 23.4211C56.2669 23.4211 56.5056 18.8188 51.8782 16.7062C54.1681 15.5324 55.7898 13.4197 55.7898 9.89755C55.7898 0.0846479 44.2455 0.319109 44.2455 0.319109H26.7541L33.481 6.94008H44.2455C44.2455 6.94008 48.4431 6.8928 48.4431 10.2745C48.4431 13.3257 44.2455 13.3257 44.2455 13.3257H39.9686C39.9686 13.3257 53.9434 27.0801 58.6177 31.6812C58.9192 31.9777 59.2137 32.2183 58.7841 31.6809Z" fill="url(#paint0_linear_2_121)"/>
<path d="M8.86003 53.8688H11.472L15.6283 59.1188V53.8688H18.3992V63.8012H15.946L11.6309 58.3527V63.8012H8.86003V53.8688ZM70.1086 45.0933C71.111 45.0933 71.6885 44.6154 71.6885 43.8534V43.8236C71.6885 43.0021 71.0808 42.584 70.0934 42.584H68.1641V45.0933H70.1086ZM65.2171 40.0748H70.2453C71.8705 40.0748 72.9948 40.493 73.7087 41.2099C74.3317 41.8075 74.6506 42.6139 74.6506 43.6445V43.6743C74.6506 45.2726 73.7848 46.333 72.4631 46.8856L75 50.53H71.5972L69.4552 47.3634H68.1641V50.53H65.2171V40.0748ZM55.0844 40.0748H63.6368V42.5392H58.0009V44.1222H63.105V46.4078H58.0009V48.0657H63.7128V50.53H55.0844V40.0748ZM43.9948 40.0748H46.9417V44.3167L50.6028 40.0748H54.0966L50.071 44.5707L54.2333 50.53H50.6939L48.02 46.6467L46.9417 47.8266V50.53H43.9948V40.0748ZM38.1759 46.4078L36.9911 43.4354L35.7909 46.4078H38.1759ZM35.5933 40H38.4341L42.9611 50.53H39.8015L39.0267 48.6629H34.9251L34.1653 50.53H31.0665L35.5933 40ZM21.7845 40.0748H30.337V42.5392H24.7013V44.1222H29.8054V46.4078H24.7013V48.0657H30.4131V50.53H21.7845V40.0748ZM15.7536 45.0933C16.7559 45.0933 17.3332 44.6154 17.3332 43.8534V43.8236C17.3332 43.0021 16.7258 42.584 15.7382 42.584H13.809V45.0933H15.7536ZM10.862 40.0748H15.8903C17.5155 40.0748 18.6395 40.493 19.3537 41.2099C19.9764 41.8075 20.2955 42.6139 20.2955 43.6445V43.6743C20.2955 45.2726 19.4296 46.333 18.1079 46.8856L20.6448 50.53H17.2422L15.1002 47.3634H13.809V50.53H10.862V40.0748ZM5.14941 48.2C6.04582 48.2 6.56227 47.8567 6.56227 47.2441V47.2142C6.56227 46.6467 6.10671 46.2733 5.1193 46.2733H2.87086V48.2H5.14941ZM4.72428 44.2418C5.6206 44.2418 6.12197 43.9432 6.12197 43.3308V43.301C6.12197 42.7333 5.66606 42.4048 4.78482 42.4048H2.87086V44.2418H4.72428ZM0 40.0748H5.45326C6.79024 40.0748 7.73219 40.4033 8.35484 41.0158C8.78029 41.4341 9.03862 41.9868 9.03862 42.7036V42.7333C9.03862 43.9432 8.33981 44.66 7.39788 45.0634C8.68929 45.4816 9.50979 46.1987 9.50979 47.6176V47.6474C9.50979 49.4397 8.02079 50.53 5.48398 50.53H0V40.0748ZM56.6008 53.8688H59.2128L63.3689 59.1188V53.8688H66.14V63.8012H63.6866L59.3714 58.3527V63.8012H56.6008V53.8688ZM52.2854 58.8634V58.8351C52.2854 57.402 51.2318 56.1532 49.6877 56.1532C48.1579 56.1532 47.1332 57.3736 47.1332 58.8066V58.8351C47.1332 60.2683 48.1869 61.5168 49.7165 61.5168C51.261 61.5168 52.2854 60.2966 52.2854 58.8634ZM44.2614 58.8634V58.8351C44.2614 55.9831 46.5993 53.6699 49.7165 53.6699C52.8337 53.6699 55.1428 55.9546 55.1428 58.8066V58.8351C55.1428 61.6871 52.8049 64 49.6877 64C46.5705 64 44.2614 61.7155 44.2614 58.8634ZM39.9464 63.8012H42.7606V53.8688H39.9464V63.8012ZM32.8313 56.2811H29.8008V53.8688H38.6615V56.2811H35.6313V63.8012H32.8313V56.2811ZM26.1348 59.885L25.0092 57.0616L23.869 59.885H26.1348ZM23.6813 53.7979H26.3801L30.6806 63.8012H27.6788L26.9429 62.0276H23.0466L22.325 63.8012H19.3808L23.6813 53.7979Z" fill="#2B2A29"/>
<path d="M8.86003 53.8688H11.472L15.6283 59.1188V53.8688H18.3992V63.8012H15.946L11.6309 58.3527V63.8012H8.86003V53.8688ZM70.1086 45.0933C71.111 45.0933 71.6885 44.6154 71.6885 43.8534V43.8236C71.6885 43.0021 71.0808 42.584 70.0934 42.584H68.1641V45.0933H70.1086ZM65.2171 40.0748H70.2453C71.8705 40.0748 72.9948 40.493 73.7087 41.2099C74.3317 41.8075 74.6506 42.6139 74.6506 43.6445V43.6743C74.6506 45.2726 73.7848 46.333 72.4631 46.8856L75 50.53H71.5972L69.4552 47.3634H68.1641V50.53H65.2171V40.0748ZM55.0844 40.0748H63.6368V42.5392H58.0009V44.1222H63.105V46.4078H58.0009V48.0657H63.7128V50.53H55.0844V40.0748ZM43.9948 40.0748H46.9417V44.3167L50.6028 40.0748H54.0966L50.071 44.5707L54.2333 50.53H50.6939L48.02 46.6467L46.9417 47.8266V50.53H43.9948V40.0748ZM38.1759 46.4078L36.9911 43.4354L35.7909 46.4078H38.1759ZM35.5933 40H38.4341L42.9611 50.53H39.8015L39.0267 48.6629H34.9251L34.1653 50.53H31.0665L35.5933 40ZM21.7845 40.0748H30.337V42.5392H24.7013V44.1222H29.8054V46.4078H24.7013V48.0657H30.4131V50.53H21.7845V40.0748ZM15.7536 45.0933C16.7559 45.0933 17.3332 44.6154 17.3332 43.8534V43.8236C17.3332 43.0021 16.7258 42.584 15.7382 42.584H13.809V45.0933H15.7536ZM10.862 40.0748H15.8903C17.5155 40.0748 18.6395 40.493 19.3537 41.2099C19.9764 41.8075 20.2955 42.6139 20.2955 43.6445V43.6743C20.2955 45.2726 19.4296 46.333 18.1079 46.8856L20.6448 50.53H17.2422L15.1002 47.3634H13.809V50.53H10.862V40.0748ZM5.14941 48.2C6.04582 48.2 6.56227 47.8567 6.56227 47.2441V47.2142C6.56227 46.6467 6.10671 46.2733 5.1193 46.2733H2.87086V48.2H5.14941ZM4.72428 44.2418C5.6206 44.2418 6.12197 43.9432 6.12197 43.3308V43.301C6.12197 42.7333 5.66606 42.4048 4.78482 42.4048H2.87086V44.2418H4.72428ZM0 40.0748H5.45326C6.79024 40.0748 7.73219 40.4033 8.35484 41.0158C8.78029 41.4341 9.03862 41.9868 9.03862 42.7036V42.7333C9.03862 43.9432 8.33981 44.66 7.39788 45.0634C8.68929 45.4816 9.50979 46.1987 9.50979 47.6176V47.6474C9.50979 49.4397 8.02079 50.53 5.48398 50.53H0V40.0748ZM56.6008 53.8688H59.2128L63.3689 59.1188V53.8688H66.14V63.8012H63.6866L59.3714 58.3527V63.8012H56.6008V53.8688ZM52.2854 58.8634V58.8351C52.2854 57.402 51.2318 56.1532 49.6877 56.1532C48.1579 56.1532 47.1332 57.3736 47.1332 58.8066V58.8351C47.1332 60.2683 48.1869 61.5168 49.7165 61.5168C51.261 61.5168 52.2854 60.2966 52.2854 58.8634ZM44.2614 58.8634V58.8351C44.2614 55.9831 46.5993 53.6699 49.7165 53.6699C52.8337 53.6699 55.1428 55.9546 55.1428 58.8066V58.8351C55.1428 61.6871 52.8049 64 49.6877 64C46.5705 64 44.2614 61.7155 44.2614 58.8634ZM39.9464 63.8012H42.7606V53.8688H39.9464V63.8012ZM32.8313 56.2811H29.8008V53.8688H38.6615V56.2811H35.6313V63.8012H32.8313V56.2811ZM26.1348 59.885L25.0092 57.0616L23.869 59.885H26.1348ZM23.6813 53.7979H26.3801L30.6806 63.8012H27.6788L26.9429 62.0276H23.0466L22.325 63.8012H19.3808L23.6813 53.7979Z" fill="url(#paint1_linear_2_121)"/>
<defs>
<linearGradient id="paint0_linear_2_121" x1="37.5" y1="-0.000646833" x2="37.5" y2="32" gradientUnits="userSpaceOnUse">
<stop stop-color="#C8A86B"/>
<stop offset="1" stop-color="#725E3A"/>
</linearGradient>
<linearGradient id="paint1_linear_2_121" x1="37.5" y1="39.9995" x2="37.5" y2="64" gradientUnits="userSpaceOnUse">
<stop stop-color="#C8A86B"/>
<stop offset="1" stop-color="#725E3A"/>
</linearGradient>
</defs>
</svg>
